<svg id="_x31_px" enable-background="new 0 0 24 24" height="512" viewBox="0 0 24 24" width="512" xmlns="http://www.w3.org/2000/svg"><path d="m23 9.64c-.205 0-.397-.127-.471-.331-.175-.486-.386-.938-.628-1.342-.143-.237-.065-.544.172-.686.234-.141.544-.066.686.172.275.46.516.971.712 1.518.093.26-.042.546-.302.64-.056.02-.113.029-.169.029z"/><path d="m8.52 7c-.113 0-.227-.038-.32-.116-.213-.177-.241-.492-.064-.704.16-.192.331-.374.502-.543 1.173-1.174 2.646-1.998 4.256-2.382.27-.066.539.102.603.37.064.269-.102.539-.37.603-1.432.34-2.74 1.072-3.783 2.116-.15.15-.3.308-.44.477-.099.118-.242.179-.384.179z"/><path d="m20.5 24c-.276 0-.5-.224-.5-.5v-2c0-1.773.532-3.459 1.54-4.906.956-1.347 1.46-2.934 1.46-4.594 0-.276.224-.5.5-.5s.5.224.5.5c0 1.868-.567 3.656-1.642 5.169-.887 1.274-1.358 2.763-1.358 4.301v2.03c0 .276-.224.5-.5.5z"/><path d="m11.5 24c-.276 0-.5-.224-.5-.5v-.325l-2.414.734c-.163.058-.367.091-.586.091-1.103 0-2-.897-2-2v-3h-2c-.561 0-1-.439-1-1 0-.188.053-.368.155-.534l1.412-2.233c.149-.234.459-.302.69-.155.233.147.303.456.155.689l-1.41 2.23 2.498.003c.276 0 .5.224.5.5v3.5c0 .551.448 1 1 1 .104 0 .196-.014.273-.041l3.081-.938c.152-.043.316-.018.443.077s.203.244.203.402v1c0 .276-.224.5-.5.5z"/><path d="m10.5 16h-8c-1.379 0-2.5-1.122-2.5-2.5v-5c0-1.378 1.121-2.5 2.5-2.5h8c.827 0 1.5.673 1.5 1.5v1.5c0 .276-.224.5-.5.5s-.5-.224-.5-.5v-1.5c0-.276-.225-.5-.5-.5h-8c-.827 0-1.5.673-1.5 1.5v5c0 .827.673 1.5 1.5 1.5h8c.275 0 .5-.224.5-.5v-1.5c0-.276.224-.5.5-.5s.5.224.5.5v1.5c0 .827-.673 1.5-1.5 1.5z"/><path d="m22.5 13.5h-14c-.827 0-1.5-.673-1.5-1.5v-2c0-.827.673-1.5 1.5-1.5h9.48c.276 0 .5.224.5.5s-.224.5-.5.5h-9.48c-.275 0-.5.224-.5.5v2c0 .276.225.5.5.5h14c.275 0 .5-.224.5-.5v-2c0-.179-.092-.337-.246-.425-.087-.052-.169-.075-.254-.075h-1.48c-.276 0-.5-.224-.5-.5s.224-.5.5-.5h1.48c.266 0 .527.073.758.211.453.258.742.754.742 1.289v2c0 .827-.673 1.5-1.5 1.5z"/><path d="m3.5 16c-.276 0-.5-.224-.5-.5v-9c0-.276.224-.5.5-.5s.5.224.5.5v9c0 .276-.224.5-.5.5z"/><path d="m19.5 6.875c-.413 0-.75-.336-.75-.75s.337-.75.75-.75.75.336.75.75-.337.75-.75.75z"/><path d="m21.62 4.505c-.128 0-.256-.049-.354-.146-.945-.946-2.588-.946-3.533 0-.195.195-.512.195-.707 0s-.195-.512 0-.707c1.324-1.324 3.623-1.324 4.947 0 .195.195.195.512 0 .707-.097.097-.225.146-.353.146z"/><path d="m23.39 2.735c-.128 0-.256-.049-.354-.146-.943-.944-2.199-1.463-3.536-1.463s-2.593.52-3.536 1.463c-.195.195-.512.195-.707 0s-.195-.512 0-.707c1.132-1.133 2.639-1.756 4.243-1.756s3.111.624 4.243 1.756c.195.195.195.512 0 .707-.097.097-.225.146-.353.146z"/></svg>